<svg width="94" height="34" viewBox="0 0 94 34" fill="none" xmlns="http://www.w3.org/2000/svg">
<path d="M91 10.6L90.5 10.5L87.1 9.9L89.1 7.1L89.4 6.7C89.7 6.2 89.7 5.6 89.3 5.2L89 4.9C88.6 4.5 88 4.5 87.5 4.8L87.1 5.1L84.3 7.1L83.7 3.7L83.6 3.2C83.5 2.6 83 2.2 82.4 2.2H82C81.4 2.2 81 2.6 80.8 3.2L80.7 3.7L80.1 7.1L77.3 5.1L76.9 4.8C76.4 4.5 75.8 4.5 75.4 4.9L75.1 5.2C74.7 5.6 74.7 6.2 75 6.7L75.3 7.1L77.3 9.9L73.9 10.5L73.4 10.6C72.8 10.7 72.4 11.2 72.4 11.8V12.2C72.4 12.8 72.8 13.2 73.4 13.4L73.9 13.5L77.3 14.1L75.3 16.9L75 17.2C74.7 17.7 74.7 18.3 75.1 18.7L75.4 19C75.8 19.4 76.4 19.4 76.9 19.1L77.3 18.8L80.1 16.8L80.7 20.2L80.8 20.7C80.9 21.3 81.4 21.7 82 21.7H82.4C83 21.7 83.4 21.3 83.6 20.7L83.7 20.2L84.3 16.8L87.1 18.8L87.5 19.1C88 19.4 88.6 19.4 89 19L89.3 18.7C89.7 18.3 89.7 17.7 89.4 17.2L89.2 16.8L87.2 14L90.6 13.4L91.1 13.3C91.7 13.2 92.1 12.7 92.1 12.1V11.8C92 11.2 91.6 10.7 91 10.6Z" fill="#FFFEFE"/>
<path d="M2 25.6C2 24.7 3 24.1 3.8 24.6C5.9 25.9 8.2 26.5 10.9 26.5C13.8 26.5 15.5 25.4 15.5 23.9C15.5 23 15.1 22.4 14.3 21.8C13.5 21.3 11.9 20.6 9.6 19.8C5.1 18.1 2.5 15.8 2.5 11.9C2.5 9.6 3.4 7.8 5.2 6.5C7 5.2 9.3 4.5 11.9 4.5C14.3 4.5 16.5 5 18.4 5.9C18.8 6.1 19.1 6.5 19.1 6.9V9.9C19.1 10.8 18.2 11.3 17.4 10.9C15.9 10.2 14.2 9.8 12.2 9.8C9.8 9.8 8.4 10.6 8.4 11.9C8.4 12.7 8.7 13.2 9.8 13.8L11 14.4L12.8 15.1L14.5 15.8C17 16.8 18.8 17.9 19.9 19.1C21 20.3 21.5 21.9 21.5 23.9C21.5 28.6 17.9 31.8 11.3 31.8C8.2 31.8 5.3 31.1 2.7 29.8C2.3 29.5 2 29.1 2 28.6V25.6Z" fill="#FFFEFE"/>
<path d="M26.4 12.2H29.7C30.4 12.2 30.9 12.7 30.9 13.4V23.1C30.9 25.3 32.1 26.7 34.2 26.7C36.3 26.7 37.7 25.2 37.7 22.9V13.3C37.7 12.6 38.2 12.1 38.9 12.1H42.2C42.9 12.1 43.4 12.6 43.4 13.3V24.5C43.4 26 43.8 26.6 44.8 26.6C45.3 26.6 45.7 27 45.7 27.5V30.2C45.7 30.8 45.3 31.3 44.7 31.4C44.3 31.5 43.8 31.5 43.2 31.5C41.9 31.5 40.9 31.3 40.1 30.8C39.2 30.2 38.7 29.5 38.4 28.7C37.5 30.6 35.5 31.5 32.8 31.5C28 31.5 25.3 28.5 25.3 23.5V13.3C25.2 12.7 25.7 12.2 26.4 12.2Z" fill="#FFFEFE"/>
<path d="M49.8 30.1V13.3C49.8 12.6 50.3 12.1 51 12.1H54.3C55 12.1 55.5 12.6 55.5 13.3V14.5C56.3 12.8 58.5 11.7 61.1 11.7C65.8 11.7 68.4 14.7 68.4 19.7V30.1C68.4 30.8 67.9 31.3 67.2 31.3H63.9C63.2 31.3 62.7 30.8 62.7 30.1V20.3C62.7 18.4 61.1 16.7 59.2 16.7C57.1 16.7 55.5 18.3 55.5 20.5V30.1C55.5 30.8 55 31.3 54.3 31.3H51C50.3 31.3 49.8 30.8 49.8 30.1Z" fill="#FFFEFE"/>
</svg>
