<svg width="417" height="83" viewBox="0 0 417 83" fill="none" xmlns="http://www.w3.org/2000/svg">
<g filter="url(#filter0_d_1_91)">
<path d="M6.88287 73.6164C7.19175 73.6164 7.50064 73.4105 7.50064 72.9986L7.39769 5.55984L51.9793 73.2046C52.0823 73.5134 52.4941 73.6164 52.803 73.6164H55.2741C55.6859 73.6164 55.9948 73.4105 55.9948 72.9986V0.617759C55.9948 0.205919 55.6859 0 55.2741 0H53.2149C52.803 0 52.4941 0.205919 52.4941 0.617759L52.5971 68.2625L8.01542 0.411837C7.91246 0.102957 7.50063 0 7.2947 0H4.72072C4.30888 0 4 0.205919 4 0.617759V72.9986C4 73.4105 4.30888 73.6164 4.72072 73.6164H6.88287Z" fill="#FFFEFE"/>
<path d="M6.88287 73.6164C7.19175 73.6164 7.50064 73.4105 7.50064 72.9986L7.39769 5.55984L51.9793 73.2046C52.0823 73.5134 52.4941 73.6164 52.803 73.6164H55.2741C55.6859 73.6164 55.9948 73.4105 55.9948 72.9986V0.617759C55.9948 0.205919 55.6859 0 55.2741 0H53.2149C52.803 0 52.4941 0.205919 52.4941 0.617759L52.5971 68.2625L8.01542 0.411837C7.91246 0.102957 7.50063 0 7.2947 0H4.72072C4.30888 0 4 0.205919 4 0.617759V72.9986C4 73.4105 4.30888 73.6164 4.72072 73.6164H6.88287Z" stroke="#FFFEFE"/>
</g>
<g filter="url(#filter1_d_1_91)">
<path d="M117.244 39.2278C117.244 26.7696 108.801 19.6654 96.7551 19.6654C84.7088 19.6654 76.2661 26.7696 76.2661 39.2278V55.9073C76.2661 67.7477 85.9443 74.646 96.7551 74.646C105.507 74.646 111.89 70.7335 116.215 66.7181C116.626 66.5122 116.626 66.2033 116.318 65.8944L115.185 64.5559C114.979 64.2471 114.67 64.2471 114.361 64.453C110.449 67.9536 104.889 71.6602 96.8581 71.6602C87.4887 71.6602 79.5608 65.8944 79.5608 55.9073V49.1119H116.626C116.935 49.1119 117.244 48.906 117.244 48.4942V39.2278ZM113.949 39.2278V46.2291H79.5608V39.2278C79.5608 28.6229 86.3562 22.7542 96.7551 22.7542C107.051 22.7542 113.949 28.7259 113.949 39.2278Z" fill="#FFFEFE"/>
<path d="M117.244 39.2278C117.244 26.7696 108.801 19.6654 96.7551 19.6654C84.7088 19.6654 76.2661 26.7696 76.2661 39.2278V55.9073C76.2661 67.7477 85.9443 74.646 96.7551 74.646C105.507 74.646 111.89 70.7335 116.215 66.7181C116.626 66.5122 116.626 66.2033 116.318 65.8944L115.185 64.5559C114.979 64.2471 114.67 64.2471 114.361 64.453C110.449 67.9536 104.889 71.6602 96.8581 71.6602C87.4887 71.6602 79.5608 65.8944 79.5608 55.9073V49.1119H116.626C116.935 49.1119 117.244 48.906 117.244 48.4942V39.2278ZM113.949 39.2278V46.2291H79.5608V39.2278C79.5608 28.6229 86.3562 22.7542 96.7551 22.7542C107.051 22.7542 113.949 28.7259 113.949 39.2278Z" stroke="#FFFEFE"/>
</g>
<g filter="url(#filter2_d_1_91)">
<path d="M172.068 20.695C171.656 20.695 171.348 21.0039 171.348 21.4157V68.5714C166.817 70.3217 161.463 71.6602 155.801 71.6602C144.269 71.6602 137.68 65.7915 137.68 53.8481V21.4157C137.68 21.0039 137.474 20.695 137.062 20.695H135.003C134.591 20.695 134.385 21.0039 134.385 21.4157V53.8481C134.385 67.6447 142.519 74.646 155.801 74.646C162.39 74.646 168.774 73.2046 174.127 70.7335C174.539 70.6306 174.642 70.2187 174.642 69.9099V21.4157C174.642 21.0039 174.436 20.695 174.024 20.695H172.068Z" fill="#FFFEFE"/>
<path d="M172.068 20.695C171.656 20.695 171.348 21.0039 171.348 21.4157V68.5714C166.817 70.3217 161.463 71.6602 155.801 71.6602C144.269 71.6602 137.68 65.7915 137.68 53.8481V21.4157C137.68 21.0039 137.474 20.695 137.062 20.695H135.003C134.591 20.695 134.385 21.0039 134.385 21.4157V53.8481C134.385 67.6447 142.519 74.646 155.801 74.646C162.39 74.646 168.774 73.2046 174.127 70.7335C174.539 70.6306 174.642 70.2187 174.642 69.9099V21.4157C174.642 21.0039 174.436 20.695 174.024 20.695H172.068Z" stroke="#FFFEFE"/>
</g>
<g filter="url(#filter3_d_1_91)">
<path d="M208.694 73.6164C209.106 73.6164 209.209 73.4105 209.312 73.1016L224.756 26.2548H224.859L240.2 73.1016C240.303 73.4105 240.509 73.6164 240.921 73.6164H243.495C243.906 73.6164 244.112 73.4105 244.215 73.1016L260.586 21.5187C260.792 21.0039 260.483 20.695 260.071 20.695H257.909C257.6 20.695 257.394 20.9009 257.291 21.2098L242.156 69.3951L226.712 22.4453C226.609 22.1364 226.403 21.9305 225.991 21.9305H223.52C223.211 21.9305 223.006 22.1364 222.903 22.4453L207.459 69.3951H207.356L192.323 21.2098C192.221 20.9009 192.015 20.695 191.603 20.695H189.441C189.029 20.695 188.823 21.0039 188.926 21.5187L205.399 73.1016C205.502 73.4105 205.708 73.6164 206.017 73.6164H208.694Z" fill="#FFFEFE"/>
<path d="M208.694 73.6164C209.106 73.6164 209.209 73.4105 209.312 73.1016L224.756 26.2548H224.859L240.2 73.1016C240.303 73.4105 240.509 73.6164 240.921 73.6164H243.495C243.906 73.6164 244.112 73.4105 244.215 73.1016L260.586 21.5187C260.792 21.0039 260.483 20.695 260.071 20.695H257.909C257.6 20.695 257.394 20.9009 257.291 21.2098L242.156 69.3951L226.712 22.4453C226.609 22.1364 226.403 21.9305 225.991 21.9305H223.52C223.211 21.9305 223.006 22.1364 222.903 22.4453L207.459 69.3951H207.356L192.323 21.2098C192.221 20.9009 192.015 20.695 191.603 20.695H189.441C189.029 20.695 188.823 21.0039 188.926 21.5187L205.399 73.1016C205.502 73.4105 205.708 73.6164 206.017 73.6164H208.694Z" stroke="#FFFEFE"/>
</g>
<g filter="url(#filter4_d_1_91)">
<path d="M315.365 55.2895V39.0219C315.365 28.2111 307.952 19.6654 293.949 19.6654C280.05 19.6654 272.534 28.2111 272.534 39.0219V55.2895C272.534 66.2033 280.05 74.646 293.949 74.646C307.952 74.646 315.365 66.2033 315.365 55.2895ZM275.828 55.2895V39.0219C275.828 29.9614 281.903 22.7542 293.949 22.7542C306.099 22.7542 312.07 29.9614 312.07 39.0219V55.2895C312.07 64.453 306.099 71.6602 293.949 71.6602C281.903 71.6602 275.828 64.453 275.828 55.2895Z" fill="#FFFEFE"/>
<path d="M315.365 55.2895V39.0219C315.365 28.2111 307.952 19.6654 293.949 19.6654C280.05 19.6654 272.534 28.2111 272.534 39.0219V55.2895C272.534 66.2033 280.05 74.646 293.949 74.646C307.952 74.646 315.365 66.2033 315.365 55.2895ZM275.828 55.2895V39.0219C275.828 29.9614 281.903 22.7542 293.949 22.7542C306.099 22.7542 312.07 29.9614 312.07 39.0219V55.2895C312.07 64.453 306.099 71.6602 293.949 71.6602C281.903 71.6602 275.828 64.453 275.828 55.2895Z" stroke="#FFFEFE"/>
</g>
<g filter="url(#filter5_d_1_91)">
<path d="M336.051 73.6164C336.463 73.6164 336.669 73.4105 336.669 72.9987V25.4311C341.096 23.6808 346.45 22.7542 351.392 22.7542C354.79 22.7542 358.394 23.0631 361.585 23.5779C361.997 23.6808 362.203 23.4749 362.203 23.0631V21.3127C362.203 20.9009 362.1 20.695 361.585 20.592C358.291 20.0772 354.687 19.6654 351.186 19.6654C345.318 19.6654 338.831 20.9009 333.889 23.269C333.58 23.3719 333.374 23.6808 333.374 23.9897V72.9987C333.374 73.4105 333.683 73.6164 333.992 73.6164H336.051Z" fill="#FFFEFE"/>
<path d="M336.051 73.6164C336.463 73.6164 336.669 73.4105 336.669 72.9987V25.4311C341.096 23.6808 346.45 22.7542 351.392 22.7542C354.79 22.7542 358.394 23.0631 361.585 23.5779C361.997 23.6808 362.203 23.4749 362.203 23.0631V21.3127C362.203 20.9009 362.1 20.695 361.585 20.592C358.291 20.0772 354.687 19.6654 351.186 19.6654C345.318 19.6654 338.831 20.9009 333.889 23.269C333.58 23.3719 333.374 23.6808 333.374 23.9897V72.9987C333.374 73.4105 333.683 73.6164 333.992 73.6164H336.051Z" stroke="#FFFEFE"/>
</g>
<g filter="url(#filter6_d_1_91)">
<path d="M408.887 24.4015C404.46 21.5186 398.797 19.6654 392.825 19.6654C379.337 19.6654 371.101 26.7696 371.101 41.6988V52.7155C371.101 67.8506 379.44 74.646 392.928 74.646C399.518 74.646 406.107 73.3075 411.667 71.0424C411.976 70.9394 412.182 70.6306 412.182 70.3217V0.617759C412.182 0.205919 411.873 0 411.461 0H409.505C409.093 0 408.887 0.205919 408.887 0.617759V24.4015ZM374.395 52.7155V41.6988C374.395 28.417 381.088 22.7542 392.928 22.7542C398.694 22.7542 404.357 24.6074 408.887 27.6962V68.8802C404.254 70.5276 398.694 71.6602 392.928 71.6602C381.191 71.6602 374.395 66.1003 374.395 52.7155V52.7155Z" fill="#FFFEFE"/>
<path d="M408.887 24.4015C404.46 21.5186 398.797 19.6654 392.825 19.6654C379.337 19.6654 371.101 26.7696 371.101 41.6988V52.7155C371.101 67.8506 379.44 74.646 392.928 74.646C399.518 74.646 406.107 73.3075 411.667 71.0424C411.976 70.9394 412.182 70.6306 412.182 70.3217V0.617759C412.182 0.205919 411.873 0 411.461 0H409.505C409.093 0 408.887 0.205919 408.887 0.617759V24.4015ZM374.395 52.7155V41.6988C374.395 28.417 381.088 22.7542 392.928 22.7542C398.694 22.7542 404.357 24.6074 408.887 27.6962V68.8802C404.254 70.5276 398.694 71.6602 392.928 71.6602C381.191 71.6602 374.395 66.1003 374.395 52.7155V52.7155Z" stroke="#FFFEFE"/>
</g>
<defs>
<filter id="filter0_d_1_91" x="0" y="0" width="59.9948" height="81.6164" filterUnits="userSpaceOnUse" color-interpolation-filters="sRGB">
<feFlood flood-opacity="0" result="BackgroundImageFix"/>
<feColorMatrix in="SourceAlpha" type="matrix" values="0 0 0 0 0 0 0 0 0 0 0 0 0 0 0 0 0 0 127 0" result="hardAlpha"/>
<feOffset dy="4"/>
<feGaussianBlur stdDeviation="2"/>
<feComposite in2="hardAlpha" operator="out"/>
<feColorMatrix type="matrix" values="0 0 0 0 0 0 0 0 0 0 0 0 0 0 0 0 0 0 0.25 0"/>
<feBlend mode="normal" in2="BackgroundImageFix" result="effect1_dropShadow_1_91"/>
<feBlend mode="normal" in="SourceGraphic" in2="effect1_dropShadow_1_91" result="shape"/>
</filter>
<filter id="filter1_d_1_91" x="72.2661" y="19.6654" width="48.9781" height="62.9806" filterUnits="userSpaceOnUse" color-interpolation-filters="sRGB">
<feFlood flood-opacity="0" result="BackgroundImageFix"/>
<feColorMatrix in="SourceAlpha" type="matrix" values="0 0 0 0 0 0 0 0 0 0 0 0 0 0 0 0 0 0 127 0" result="hardAlpha"/>
<feOffset dy="4"/>
<feGaussianBlur stdDeviation="2"/>
<feComposite in2="hardAlpha" operator="out"/>
<feColorMatrix type="matrix" values="0 0 0 0 0 0 0 0 0 0 0 0 0 0 0 0 0 0 0.25 0"/>
<feBlend mode="normal" in2="BackgroundImageFix" result="effect1_dropShadow_1_91"/>
<feBlend mode="normal" in="SourceGraphic" in2="effect1_dropShadow_1_91" result="shape"/>
</filter>
<filter id="filter2_d_1_91" x="130.385" y="20.695" width="48.2574" height="61.951" filterUnits="userSpaceOnUse" color-interpolation-filters="sRGB">
<feFlood flood-opacity="0" result="BackgroundImageFix"/>
<feColorMatrix in="SourceAlpha" type="matrix" values="0 0 0 0 0 0 0 0 0 0 0 0 0 0 0 0 0 0 127 0" result="hardAlpha"/>
<feOffset dy="4"/>
<feGaussianBlur stdDeviation="2"/>
<feComposite in2="hardAlpha" operator="out"/>
<feColorMatrix type="matrix" values="0 0 0 0 0 0 0 0 0 0 0 0 0 0 0 0 0 0 0.25 0"/>
<feBlend mode="normal" in2="BackgroundImageFix" result="effect1_dropShadow_1_91"/>
<feBlend mode="normal" in="SourceGraphic" in2="effect1_dropShadow_1_91" result="shape"/>
</filter>
<filter id="filter3_d_1_91" x="184.9" y="20.695" width="79.7519" height="60.9214" filterUnits="userSpaceOnUse" color-interpolation-filters="sRGB">
<feFlood flood-opacity="0" result="BackgroundImageFix"/>
<feColorMatrix in="SourceAlpha" type="matrix" values="0 0 0 0 0 0 0 0 0 0 0 0 0 0 0 0 0 0 127 0" result="hardAlpha"/>
<feOffset dy="4"/>
<feGaussianBlur stdDeviation="2"/>
<feComposite in2="hardAlpha" operator="out"/>
<feColorMatrix type="matrix" values="0 0 0 0 0 0 0 0 0 0 0 0 0 0 0 0 0 0 0.25 0"/>
<feBlend mode="normal" in2="BackgroundImageFix" result="effect1_dropShadow_1_91"/>
<feBlend mode="normal" in="SourceGraphic" in2="effect1_dropShadow_1_91" result="shape"/>
</filter>
<filter id="filter4_d_1_91" x="268.534" y="19.6654" width="50.8313" height="62.9806" filterUnits="userSpaceOnUse" color-interpolation-filters="sRGB">
<feFlood flood-opacity="0" result="BackgroundImageFix"/>
<feColorMatrix in="SourceAlpha" type="matrix" values="0 0 0 0 0 0 0 0 0 0 0 0 0 0 0 0 0 0 127 0" result="hardAlpha"/>
<feOffset dy="4"/>
<feGaussianBlur stdDeviation="2"/>
<feComposite in2="hardAlpha" operator="out"/>
<feColorMatrix type="matrix" values="0 0 0 0 0 0 0 0 0 0 0 0 0 0 0 0 0 0 0.25 0"/>
<feBlend mode="normal" in2="BackgroundImageFix" result="effect1_dropShadow_1_91"/>
<feBlend mode="normal" in="SourceGraphic" in2="effect1_dropShadow_1_91" result="shape"/>
</filter>
<filter id="filter5_d_1_91" x="329.374" y="19.6654" width="36.8288" height="61.951" filterUnits="userSpaceOnUse" color-interpolation-filters="sRGB">
<feFlood flood-opacity="0" result="BackgroundImageFix"/>
<feColorMatrix in="SourceAlpha" type="matrix" values="0 0 0 0 0 0 0 0 0 0 0 0 0 0 0 0 0 0 127 0" result="hardAlpha"/>
<feOffset dy="4"/>
<feGaussianBlur stdDeviation="2"/>
<feComposite in2="hardAlpha" operator="out"/>
<feColorMatrix type="matrix" values="0 0 0 0 0 0 0 0 0 0 0 0 0 0 0 0 0 0 0.25 0"/>
<feBlend mode="normal" in2="BackgroundImageFix" result="effect1_dropShadow_1_91"/>
<feBlend mode="normal" in="SourceGraphic" in2="effect1_dropShadow_1_91" result="shape"/>
</filter>
<filter id="filter6_d_1_91" x="367.101" y="0" width="49.081" height="82.646" filterUnits="userSpaceOnUse" color-interpolation-filters="sRGB">
<feFlood flood-opacity="0" result="BackgroundImageFix"/>
<feColorMatrix in="SourceAlpha" type="matrix" values="0 0 0 0 0 0 0 0 0 0 0 0 0 0 0 0 0 0 127 0" result="hardAlpha"/>
<feOffset dy="4"/>
<feGaussianBlur stdDeviation="2"/>
<feComposite in2="hardAlpha" operator="out"/>
<feColorMatrix type="matrix" values="0 0 0 0 0 0 0 0 0 0 0 0 0 0 0 0 0 0 0.25 0"/>
<feBlend mode="normal" in2="BackgroundImageFix" result="effect1_dropShadow_1_91"/>
<feBlend mode="normal" in="SourceGraphic" in2="effect1_dropShadow_1_91" result="shape"/>
</filter>
</defs>
</svg>
